HIERARCHY
ROOT Hips
{
	OFFSET -0.179506 -22.333345 2.821913
	CHANNELS 6 Xposition Yposition Zposition Zrotation Yrotation Xrotation 
	JOINT LeftUpLeg
	{
		OFFSET 6.951974 -9.140623 -0.681533
		CHANNELS 3 Zrotation Yrotation Xrotation
		JOINT LeftLeg
		{
			OFFSET 3.427654 -37.519855 -0.449580
			CHANNELS 3 Zrotation Yrotation Xrotation
			JOINT LeftFoot
			{
				OFFSET -1.359570 -39.796059 -4.369333
				CHANNELS 3 Zrotation Yrotation Xrotation
				JOINT LeftToe
				{
					OFFSET 2.635814 -5.579078 11.928840
					CHANNELS 3 Zrotation Yrotation Xrotation
					End Site
					{
						OFFSET 0.000000 0.000000 0.000000
					}
				}
			}
		}
	}
	JOINT RightUpLeg
	{
		OFFSET -6.767048 -9.052170 -0.431982
		CHANNELS 3 Zrotation Yrotation Xrotation
		JOINT RightLeg
		{
			OFFSET -3.829005 -38.256897 -0.885003
			CHANNELS 3 Zrotation Yrotation Xrotation
			JOINT RightFoot
			{
				OFFSET 1.577377 -39.841461 -4.231180
				CHANNELS 3 Zrotation Yrotation Xrotation
				JOINT RightToe
				{
					OFFSET -2.537174 -4.814398 12.334795
					CHANNELS 3 Zrotation Yrotation Xrotation
					End Site
					{
						OFFSET 0.000000 0.000000 0.000000
					}
				}
			}
		}
	}
	JOINT Spine
	{
		OFFSET -0.253288 10.896323 -2.669631
		CHANNELS 3 Zrotation Yrotation Xrotation
		JOINT Spine1
		{
			OFFSET 0.548704 13.518043 0.109247
			CHANNELS 3 Zrotation Yrotation Xrotation
			JOINT Spine2
			{
				OFFSET 0.145701 5.292222 2.542457
				CHANNELS 3 Zrotation Yrotation Xrotation
				JOINT Neck
				{
					OFFSET -0.277840 21.387037 -4.285703
					CHANNELS 3 Zrotation Yrotation Xrotation
					JOINT Head
					{
						OFFSET 0.515184 6.496960 5.134897
						CHANNELS 3 Zrotation Yrotation Xrotation
						End Site
						{
							OFFSET 0.000000 0.000000 0.000000
						}
					}
				}
				JOINT LeftShoulder
				{
					OFFSET 7.884473 12.174932 -3.408961
					CHANNELS 3 Zrotation Yrotation Xrotation
					JOINT LeftArm
					{
						OFFSET 9.097692 3.046888 -0.886815
						CHANNELS 3 Zrotation Yrotation Xrotation
						JOINT LeftForeArm
						{
							OFFSET 25.961220 -1.277207 -2.745643
							CHANNELS 3 Zrotation Yrotation Xrotation
							JOINT LeftHand
							{
								OFFSET 24.923361 0.898606 -0.117091
								CHANNELS 3 Zrotation Yrotation Xrotation
								End Site
								{
									OFFSET 0.000000 0.000000 0.000000
								}
							}
						}
					}
				}
				JOINT RightShoulder
				{
					OFFSET -8.175920 11.883285 -3.861528
					CHANNELS 3 Zrotation Yrotation Xrotation
					JOINT RightArm
					{
						OFFSET -9.601238 3.255117 -0.914307
						CHANNELS 3 Zrotation Yrotation Xrotation
						JOINT RightForeArm
						{
							OFFSET -25.374195 -1.332924 -2.140099
							CHANNELS 3 Zrotation Yrotation Xrotation
							JOINT RightHand
							{
								OFFSET -25.529810 0.777228 -0.555919
								CHANNELS 3 Zrotation Yrotation Xrotation
								End Site
								{
									OFFSET 0.000000 0.000000 0.000000
								}
							}
						}
					}
				}
			}
		}
	}
}
MOTION
Frames: 15
Frame Time: 0.033333
-98.662262 -125.601028 94.546288 -173.279079 1.504309 87.964826 8.564049 7.274182 -7.441193 -1.202239 11.460795 13.950818 -1.101716 15.863656 -22.025207 nan nan nan -3.725899 -8.046171 -1.046606 2.206162 -13.576707 14.178578 -0.461360 -7.952164 -19.842649 nan nan nan -7.888881 7.213825 9.578074 2.001237 -0.583924 20.905273 0.930892 0.037560 -9.640110 1.690029 8.529038 3.470425 4.923602 -16.974619 -16.580215 -18.829717 2.578989 -6.053520 -56.642332 -24.537051 27.757654 154.666439 -68.173074 -139.799566 -20.284474 -35.405385 10.481489 27.333936 6.071275 1.324495 59.764752 -2.004894 18.562110 -18.488196 8.626681 -10.832236 11.871517 18.589364 -14.318148 
-99.054260 -125.641846 94.532906 -173.159998 1.525909 87.893956 8.755554 7.932716 -7.376993 -1.475771 12.623554 14.057460 -1.333234 15.551611 -20.675939 nan nan nan -3.957514 -8.392948 -0.594685 2.057205 -14.025605 13.662279 -0.746627 -7.843836 -19.541764 nan nan nan -7.923164 7.170134 9.497893 2.074191 -0.688491 20.956724 1.028568 -0.047671 -9.728251 1.818327 8.794467 3.528524 4.710132 -17.008876 -16.561267 -18.748964 2.585074 -5.929157 -56.852510 -24.458265 27.695626 154.127959 -68.150839 -139.278401 -20.942015 -35.666039 9.870654 27.303616 5.967114 1.344783 59.747601 -2.165314 18.594120 -18.705001 8.547574 -11.229722 12.290421 18.588177 -14.505997 
-99.467979 -125.726784 94.504967 -173.042085 1.685935 87.738943 9.007166 8.459892 -7.217286 -1.706452 13.335789 14.031906 -1.483258 15.136421 -19.292262 nan nan nan -4.039734 -8.672562 -0.132309 1.944970 -14.214113 13.152631 -1.054943 -7.906051 -19.257648 nan nan nan -7.524347 6.996676 9.774120 1.968906 -0.798110 20.636322 0.983687 -0.096066 -9.626093 1.770417 8.946960 3.504403 4.610196 -17.008031 -16.517991 -18.811035 2.508300 -5.715780 -56.720847 -24.493390 27.466822 154.011517 -67.987447 -139.221670 -20.827283 -35.369117 9.727533 27.272622 5.893434 1.506074 59.674885 -2.163001 18.300653 -18.778603 8.588328 -11.658280 12.504921 18.312008 -14.456234 
-99.876350 -125.840172 94.468178 -173.023077 1.946759 87.516546 9.341933 8.921069 -7.024642 -1.943338 13.735805 14.040890 -1.757889 14.528033 -17.933648 nan nan nan -3.953107 -8.682357 0.320386 1.802938 -14.270806 12.694139 -1.222683 -8.187171 -19.035997 nan nan nan -6.958534 6.733898 10.286722 1.807336 -0.873931 20.161305 0.857729 -0.076934 -9.507268 1.780417 9.084070 3.319152 4.481121 -17.114805 -16.325085 -18.888156 2.493806 -5.676691 -56.660987 -24.457690 27.341779 153.775541 -67.821259 -139.038831 -20.753213 -35.540380 8.982475 27.227521 5.786185 1.602609 59.633383 -2.123069 17.990292 -18.864382 8.612347 -11.787082 12.650406 17.982309 -14.153268 
-100.277916 -125.922752 94.420151 -172.963157 2.144480 87.413625 9.576970 9.217640 -6.973833 -2.252421 13.817293 14.060502 -2.095643 13.874982 -16.954809 nan nan nan -4.018691 -8.617697 0.574978 1.806099 -14.397359 12.442786 -1.236804 -8.367632 -18.901653 nan nan nan -6.681340 6.474910 10.527170 1.789767 -0.973383 19.900612 0.796417 -0.071708 -9.486914 1.928973 9.171145 3.106133 4.246544 -17.199361 -15.998773 -18.902386 2.569787 -5.752808 -56.843995 -24.346771 27.457717 153.492337 -67.790740 -138.594835 -20.463160 -35.929081 8.748691 27.182989 5.562803 1.353310 59.539782 -2.252448 18.095982 -18.847701 8.450322 -11.635466 12.609403 18.062136 -14.262228 
-100.691788 -125.959999 94.359085 -172.664794 2.217022 87.406116 9.549678 9.253695 -7.076690 -2.551404 13.523736 14.100925 -2.160168 13.504553 -16.623009 nan nan nan -4.344438 -8.752713 0.713634 1.994633 -14.460467 12.337457 -1.213618 -8.469974 -18.814956 nan nan nan -6.653710 6.267029 10.463189 1.907524 -1.181959 19.978322 0.826828 -0.119050 -9.674642 1.982922 9.001139 2.905439 3.943974 -16.876203 -15.581424 -18.985452 2.598536 -5.658439 -56.950085 -24.339187 27.543554 153.365458 -67.802462 -138.327513 -20.038944 -35.880638 9.072318 26.982518 5.179392 0.890860 59.462148 -2.363143 18.300315 -18.596800 8.097198 -11.365303 12.701050 18.229170 -14.301627 
-101.123001 -126.008316 94.282036 -172.435736 2.235346 87.303841 9.418091 9.299848 -7.150130 -2.719803 13.303662 14.338804 -2.171400 13.338146 -16.647327 nan nan nan -4.771309 -8.781278 0.835771 2.156880 -14.475638 12.392346 -1.058710 -8.560780 -18.720039 nan nan nan -6.512726 6.107527 10.617089 1.911124 -1.300296 19.750325 0.830365 -0.134893 -9.546642 1.926223 8.686833 2.519849 3.618891 -16.723708 -15.125938 -19.100676 2.499203 -5.632277 -56.990107 -24.372107 27.494136 152.995685 -67.798495 -138.043862 -20.460153 -36.242297 8.357323 26.798392 5.003400 0.736048 59.419700 -2.401960 18.049483 -18.511436 7.924361 -11.451117 13.019087 18.215113 -14.105766 
-101.540634 -126.079849 94.222054 -172.322592 2.275943 87.156916 9.327586 9.376091 -7.279633 -2.787585 13.251976 14.864410 -2.236370 13.172684 -16.911453 nan nan nan -5.120326 -8.731344 0.868290 2.189925 -14.499892 12.608334 -0.921073 -8.582844 -18.676656 nan nan nan -6.293936 5.973029 10.937207 1.841605 -1.376581 19.350318 0.796687 -0.159955 -9.330879 1.917926 8.651286 2.189290 3.432119 -16.645357 -14.880517 -19.242934 2.454380 -5.715168 -56.966855 -24.342528 27.506967 152.729984 -67.756437 -137.935671 -21.036924 -36.442705 7.799268 26.819069 5.022204 0.797723 59.248942 -2.522008 17.841393 -18.545694 7.910326 -11.793852 13.392736 18.114445 -14.186193 
-101.936676 -126.133057 94.172424 -172.010090 2.445911 87.257956 9.409374 9.346264 -7.825151 -2.876113 13.289645 15.690884 -2.391226 12.822721 -17.258800 nan nan nan -5.275609 -8.822561 0.682956 2.282027 -14.606250 12.824649 -0.862057 -8.562186 -18.716929 nan nan nan -6.236683 5.841341 10.712982 1.997403 -1.618039 19.382999 0.871821 -0.277913 -9.313975 2.007685 8.669298 2.162291 3.441808 -16.399051 -14.883364 -19.395677 2.499005 -5.750148 -57.120441 -24.275787 27.637955 152.500160 -67.719739 -137.853525 -21.451618 -36.250478 7.932412 26.794952 4.847991 0.388323 58.995581 -2.634295 18.062580 -18.395260 7.600360 -11.803067 13.856149 17.981404 -14.213351 
-102.330963 -126.177963 94.152000 -171.701513 2.531479 87.371280 9.464409 9.213077 -8.403390 -3.023440 13.319611 16.577236 -2.548566 12.450651 -17.561117 nan nan nan -5.594590 -9.001810 0.405862 2.516885 -14.660862 13.184871 -0.813845 -8.424127 -19.045575 nan nan nan -6.158416 5.790578 10.564954 2.072766 -1.758471 19.340736 0.976065 -0.299903 -9.305187 1.854174 8.493992 2.082719 3.646208 -16.411356 -15.052310 -19.961291 2.157194 -5.591300 -56.646857 -24.207667 27.485790 152.392390 -67.672069 -137.854471 -21.475927 -36.286926 8.008110 27.267552 5.106327 0.892032 58.487424 -2.931313 17.474019 -18.738850 7.854658 -12.342471 13.977181 17.657900 -13.764512 
-102.710869 -126.254593 94.157616 -171.594780 2.503702 87.332778 9.451393 8.911709 -8.683466 -3.191758 13.313740 17.292507 -2.756811 12.163083 -17.843860 nan nan nan -5.970870 -8.998365 0.191806 2.627801 -14.597682 13.652620 -0.984707 -8.292453 -19.399584 nan nan nan -6.167983 5.902929 10.662141 2.100262 -1.694863 19.180739 1.089822 -0.441155 -9.241848 1.807701 8.210743 1.942606 3.829104 -16.377708 -15.222570 -20.388161 1.931242 -5.567628 -56.326920 -24.198831 27.586562 152.054203 -67.684763 -137.598183 -21.205302 -36.398721 7.908376 27.446332 5.140627 0.960557 58.244696 -3.161247 17.282948 -18.800155 7.839392 -12.984649 13.846650 17.757303 -14.476208 
-103.058533 -126.313591 94.175659 -171.583071 2.496717 87.199861 9.478655 8.622679 -8.761327 -3.407541 13.000750 17.890147 -2.942399 11.835298 -18.082848 nan nan nan -6.166311 -8.897595 0.114350 2.522336 -14.455723 14.008577 -1.182607 -8.248986 -19.625188 nan nan nan -6.219168 6.006809 10.861126 2.118586 -1.607781 18.913876 1.228176 -0.509643 -9.104755 1.846349 7.948097 1.863758 3.877488 -16.282204 -15.281898 -20.666125 1.819425 -5.627837 -56.254248 -24.127134 27.781758 151.631121 -67.726237 -137.241142 -21.144338 -36.458843 7.792646 27.381999 5.094616 0.794230 58.194290 -3.357352 17.375213 -18.657422 7.555618 -13.623997 13.616820 18.357985 -16.420149 
-103.388329 -126.359978 94.201447 -171.533951 2.491328 87.044529 9.518117 8.277480 -8.846559 -3.720102 12.370806 18.548319 -3.077006 11.510140 -18.249187 nan nan nan -6.310924 -8.875824 0.137957 2.372926 -14.282242 14.213407 -1.249053 -8.291179 -19.692337 nan nan nan -6.300840 6.104227 10.998801 2.163413 -1.597780 18.821028 1.336208 -0.502164 -9.039051 1.918716 7.678816 1.746706 3.878283 -16.288972 -15.255318 -20.889854 1.725308 -5.564426 -56.243246 -24.167364 27.812640 151.398575 -67.791367 -137.037930 -21.538159 -36.418510 7.842858 27.455917 5.062380 0.885105 58.111886 -3.415392 17.232424 -18.699459 7.386160 -13.617171 13.594204 18.370936 -16.643156 
-103.693001 -126.415077 94.230637 -171.548112 2.545815 86.938003 9.653111 7.885923 -9.037966 -4.054519 11.548107 19.379005 -3.275306 11.104807 -18.384204 nan nan nan -6.318960 -8.729925 0.129239 2.199245 -14.163107 14.308684 -1.363786 -8.410375 -19.623290 nan nan nan -6.370630 6.264663 11.033301 2.262685 -1.494643 18.861451 1.462783 -0.531532 -9.070839 2.032809 7.504555 1.740595 3.905584 -16.417838 -15.368110 -21.111163 1.578514 -5.387940 -56.251512 -24.196024 27.802238 151.417254 -67.881219 -136.903801 -21.507207 -36.431545 8.635198 27.559905 5.090407 0.988674 58.051912 -3.571202 16.999307 -18.862162 7.277763 -13.147621 13.548153 18.236186 -15.758703 
-103.988152 -126.471054 94.262192 -171.579437 2.632050 86.840118 9.754209 7.376903 -9.218661 -4.303547 10.380786 20.230882 -3.522089 10.596338 -18.578667 nan nan nan -6.254076 -8.483848 0.186794 2.068945 -14.043582 14.229602 -1.513570 -8.582695 -19.514577 nan nan nan -6.379487 6.377656 11.073645 2.326074 -1.363380 18.993488 1.552439 -0.596087 -9.202285 2.203208 7.424521 1.723931 3.926776 -16.489121 -15.456571 -21.402468 1.540799 -5.277790 -56.124189 -24.202530 27.897098 151.849453 -68.033039 -136.916578 -20.685224 -36.434785 10.328605 27.551109 5.174834 0.972402 58.085528 -3.753707 17.033243 -18.917207 7.029582 -13.098963 13.425528 18.704790 -16.223677 
